<?xml version="1.0" encoding="UTF-8"?>
<svg width="24px" height="24px" viewBox="0 0 24 24" version="1.1" xmlns="http://www.w3.org/2000/svg" xmlns:xlink="http://www.w3.org/1999/xlink">
    <!-- Generator: Sketch 47.1 (45422) - http://www.bohemiancoding.com/sketch -->
    <title>Add image</title>
    <desc>Created with Sketch.</desc>
    <defs>
        <path d="M3.43054797,3.01594841 L1.37905574,3.01594841 C0.881999466,3.01594841 0.479055741,3.45650779 0.479055741,3.95356406 C0.479055741,4.45062034 0.881999466,4.99499697 1.37905574,4.99499697 L3.43054797,4.99499697 L3.43054797,6.82742751 C3.43054797,7.32448378 3.88199947,7.72742751 4.37905574,7.72742751 C4.87611202,7.72742751 5.3339539,7.32448378 5.3339539,6.82742751 L5.3339539,4.99499697 L7.34582307,4.99499697 C7.84287935,4.99499697 8.24582307,4.45062034 8.24582307,3.95356406 C8.24582307,3.45650779 7.84287935,3.01594841 7.34582307,3.01594841 L5.3339539,3.01594841 L5.3339539,0.953564061 C5.3339539,0.456507786 4.87611202,0.0535640609 4.37905574,0.0535640609 C3.88199947,0.0535640609 3.43054797,0.456507786 3.43054797,0.953564061 L3.43054797,3.01594841 Z" id="path-1"></path>
    </defs>
    <g id="Feedback" stroke="none" stroke-width="1" fill="none" fill-rule="evenodd" opacity="0.5">
        <g id="Assets" transform="translate(-137.000000, -104.000000)">
            <g id="Add-image" transform="translate(137.000000, 105.000000)">
                <g>
                    <path d="M11.3031801,13.2331028 C12.3015801,13.2331028 13.1103801,12.4401616 13.1103801,11.4625145 C13.1103801,10.483691 12.3015801,9.69074983 11.3031801,9.69074983 C10.3059801,9.69074983 9.4971801,10.483691 9.4971801,11.4625145 C9.4971801,12.4401616 10.3059801,13.2331028 11.3031801,13.2331028" id="Fill-1" fill="#697178"></path>
                    <g id="Group-5" transform="translate(0.000000, 2.755529)" fill="#697178">
                        <path d="M18.1169806,14.7548464 L15.1160083,11.6387499 C14.6817424,11.1889462 13.9784908,11.1889462 13.5453051,11.6387499 L11.7607096,13.4918065 L9.71577068,15.6140724 C9.5548114,15.7800847 9.29446788,15.7800847 9.13458887,15.6140724 C8.97362959,15.44806 8.97362959,15.1766074 9.13458887,15.0117168 L11.1795278,12.8872075 L6.93517221,8.48002864 C6.50090625,8.03022493 5.79765466,8.03022493 5.3633887,8.48002864 L1.88385969,12.0941621 L1.88385969,2.20072409 L18.1159003,2.20072409 L18.1169806,14.7548464 Z M19.99988,3.66005657 L19.99988,19.0913579 C19.99988,19.7284863 19.5029588,20.2444706 18.889369,20.2444706 L1.11147123,20.2444706 C0.496801249,20.2444706 -0.00012,19.7284863 -0.00012,19.0913579 L-0.00012,1.39870502 C-0.00012,0.761576589 0.496801249,0.244470588 1.11147123,0.244470588 L16.9659419,0.244470588 L15.0425147,0.244470588 C14.5454584,0.244470588 14.252624,0.725541066 14.252624,1.22259734 C14.252624,1.71965362 14.5414362,2.20072409 15.0384925,2.20072409 L18.1159003,2.20072409 L18.1159003,5.11938905 C18.1159003,5.61644533 18.5454584,6.01938905 19.0425147,6.01938905 C19.539571,6.01938905 19.99988,5.61644533 19.99988,5.11938905 L19.99988,3.66005657 Z" id="Combined-Shape"></path>
                    </g>
                    <g id="Group-2" transform="translate(14.679838, 0.000000)" fill-rule="nonzero">
                        <g id="Combined-Shape">
                            <use fill="#697178" fill-rule="evenodd" xlink:href="#path-1"></use>
                            <path stroke="#FFFFFF" stroke-width="1" d="M2.93054797,2.51594841 L2.93054797,0.953564061 C2.93054797,0.180634145 3.6043089,-0.446435939 4.37905574,-0.446435939 C5.15409656,-0.446435939 5.8339539,0.180583769 5.8339539,0.953564061 L5.8339539,2.51594841 L7.34582307,2.51594841 C8.11870933,2.51594841 8.74582307,3.17927138 8.74582307,3.95356406 C8.74582307,4.7344393 8.12092846,5.49499697 7.34582307,5.49499697 L5.8339539,5.49499697 L5.8339539,6.82742751 C5.8339539,7.6004078 5.15409656,8.22742751 4.37905574,8.22742751 C3.6043089,8.22742751 2.93054797,7.60035742 2.93054797,6.82742751 L2.93054797,5.49499697 L1.37905574,5.49499697 C0.603950358,5.49499697 -0.020944259,4.7344393 -0.020944259,3.95356406 C-0.020944259,3.17927138 0.606169487,2.51594841 1.37905574,2.51594841 L2.93054797,2.51594841 Z"></path>
                        </g>
                    </g>
                </g>
            </g>
        </g>
    </g>
</svg>